<svg width="110" height="110" viewBox="0 0 110 110" fill="none" xmlns="http://www.w3.org/2000/svg">
<g clip-path="url(#clip0_1710_10137)">
<rect width="109.403" height="109.403" rx="54.7014" fill="#9FA9FF"/>
<path d="M61.1025 16.0397C65.2193 16.0397 86.2173 20.4325 92.726 58.0128C94.7499 72.6861 97.0038 79.8618 97.8317 81.6557C97.9467 81.6557 98.0387 81.6557 98.1077 81.6327C98.2227 82.2307 98.1077 82.2767 97.8317 81.6557C92.887 81.9087 64.1613 84.0246 43.0713 81.6327C25.9831 79.7008 7.35394 64.1535 7.35394 64.1535C24.2812 50.9521 31.2268 37.7507 33.8027 29.7011C41.1854 14.0158 58.9865 16.0397 61.1025 16.0397Z" fill="black"/>
<path d="M40.2195 66.0624C26.9261 60.9567 29.64 40.0506 36.2866 32.047C52.4319 32.162 61.9764 21.3755 61.7005 22.3185C58.6646 32.599 59.4926 39.9127 61.5395 45.0874C61.5395 45.0874 65.2653 38.8777 69.1751 44.2594C71.36 48.3303 66.6912 52.907 66.6912 52.907C66.6912 52.907 64.2303 57.0698 65.4953 64.5445C66.6912 78.2979 76.3278 82.8976 76.2818 82.9206C71.429 89.1074 61.5625 120.8 61.5625 120.8C61.7235 120.294 48.775 96.099 51.8569 84.3696L47.6481 65.9934C46.4982 66.3614 42.9333 67.0974 40.2195 66.0624Z" fill="#FF6B6B"/>
<path d="M66.8066 44.6965C65.3577 44.1215 63.7248 45.0875 63.1038 45.6624C63.1038 45.6624 64.8977 45.2254 66.0247 45.3634C67.1056 45.5014 67.6576 46.3984 67.6576 46.3984C67.7266 46.0074 67.6116 45.0875 66.8066 44.6965Z" fill="#E34545"/>
<path d="M64.1385 54.034C62.8736 54.195 62.0687 53.574 61.8157 53.252C61.8157 53.689 61.9307 54.609 62.5286 54.701C63.1036 54.793 63.8396 54.287 64.1385 54.034Z" fill="#E34545"/>
<path d="M49.1888 54.839C51.2719 54.839 52.9607 53.1503 52.9607 51.0672C52.9607 48.9841 51.2719 47.2954 49.1888 47.2954C47.1057 47.2954 45.417 48.9841 45.417 51.0672C45.417 53.1503 47.1057 54.839 49.1888 54.839Z" fill="#E34545"/>
<path d="M35.1603 44.7425C34.8153 46.7894 32.8374 48.1694 30.7675 47.8244C30.7675 47.8244 30.8595 46.0995 31.2505 44.0525C31.5955 42.0056 32.1704 40.4187 32.1704 40.4187C34.2404 40.7407 35.5053 42.6956 35.1603 44.7425Z" fill="#E34545"/>
<path d="M47.6254 65.9934C51.5812 64.6365 60.5277 60.4967 65.3115 54.9309L65.5875 54.6089C65.4955 54.7239 65.4035 54.8389 65.3115 54.9309L49.4423 73.813L47.6254 65.9934Z" fill="#E34545"/>
<path d="M40.0356 50.5153C40.0356 50.5153 36.4708 49.2963 36.4708 47.4794C36.4708 46.3065 40.5186 40.0968 40.5186 40.0968" stroke="black" stroke-width="2.52267" stroke-linecap="round"/>
<path d="M63.9314 56.3797C62.1835 58.6106 57.1238 63.3024 50.7991 65.4643" stroke="black" stroke-width="2.2367" stroke-linecap="round"/>
<path d="M50.1143 43.2589C50.769 42.6387 50.9174 41.7322 50.4457 41.2342C49.974 40.7363 49.0609 40.8354 48.4061 41.4556C47.7514 42.0758 47.603 42.9822 48.0747 43.4802C48.5464 43.9781 49.4596 43.8791 50.1143 43.2589Z" fill="black"/>
<path d="M37.3172 38.9968C37.8083 38.2405 37.7401 37.3245 37.1649 36.9509C36.5896 36.5774 35.7251 36.8877 35.234 37.6441C34.7428 38.4005 34.811 39.3165 35.3863 39.69C35.9615 40.0635 36.826 39.7532 37.3172 38.9968Z" fill="black"/>
<path d="M50.6385 79.3787C43.0719 79.6087 36.7012 87.3824 34.1023 91.9362C34.1023 91.9362 16.8531 126.09 14.7142 129.148C12.5753 132.207 3.51371 138.946 -7.18079 129.148C-17.8753 119.351 -23.326 88.8773 -24.729 74.8709L-50.9017 102.7C-46.164 129.976 -33.1466 147.548 -21.9461 154.746C-10.7456 161.945 -2.67299 164.774 10.6204 164.774C25.2477 164.774 40.036 143.247 46.2457 132.207L46.1077 160.91C75.3623 159.599 99.6952 166.361 115.15 170.224L103.605 121.053C105.744 121.053 116.139 126.619 140.633 148.881C165.127 171.144 180.168 200.1 184.607 211.784L213.563 173.099C194.911 157.874 151.489 121.927 126.995 99.8938C102.501 77.8378 80.7211 80.4597 74.0514 81.2876L61.034 117.695L50.6385 79.3787Z" fill="#7432FF"/>
<path d="M51.4888 82.5525L61.1713 117.902L72.6708 85.5654" stroke="black" stroke-width="2.52267" stroke-linecap="round"/>
</g>
<path d="M34 53C33.5 55 36.5 64.5 45 57.5" stroke="black" stroke-width="2"/>
<defs>
<clipPath id="clip0_1710_10137">
<rect width="109.403" height="109.403" rx="54.7014" fill="white"/>
</clipPath>
</defs>
</svg>
