<svg width="24" height="24" viewBox="0 0 24 24" fill="none" xmlns="http://www.w3.org/2000/svg">
<rect width="24" height="24" fill="#3C63EF"/>
<path d="M17.445 13.455H17.1876L17.5779 14.3015V17.0001H16.3323V10.1865H17.5779V10.7313L17.2042 11.2928H17.4865C17.8851 10.6475 18.9315 10.1111 19.9861 10.1111C21.2898 10.1111 22.4773 10.924 22.4773 12.5415C22.4773 14.159 21.2566 14.9887 19.9529 14.9887C18.7571 14.9887 17.8602 14.2931 17.445 13.455ZM17.5862 12.4158C17.5862 13.3125 18.2671 14.1255 19.546 14.1255C20.7085 14.1255 21.2317 13.455 21.2317 12.4661C21.2317 11.4771 20.6753 10.8402 19.5128 10.8402C18.3502 10.8402 17.5862 11.4688 17.5862 12.4158Z" fill="white"/>
<path d="M8.55546 13.3664C8.55546 14.5564 7.56727 14.8665 6.51264 14.8665H3V9H6.13896C7.25171 9 8.4392 9.20114 8.4392 10.4415C8.4392 11.4388 7.68352 11.7489 6.78668 11.8159V12.1009C7.73335 12.1763 8.55546 12.302 8.55546 13.3664ZM4.24562 9.93027V11.6148H6.18048C6.79498 11.6148 7.25171 11.3047 7.25171 10.7348C7.25171 10.1314 6.74516 9.93027 6.07252 9.93027H4.24562ZM7.32645 13.1736C7.32645 12.5618 6.86142 12.2853 6.17217 12.2853H4.24562V14.0368H6.33826C6.89463 14.0368 7.32645 13.7603 7.32645 13.1736Z" fill="white"/>
<path d="M15.2215 13.3664C15.2215 14.5564 14.2333 14.8665 13.1787 14.8665H9.66602V9H12.805C13.9177 9 15.1052 9.20114 15.1052 10.4415C15.1052 11.4388 14.3495 11.7489 13.4527 11.8159V12.1009C14.3994 12.1763 15.2215 12.302 15.2215 13.3664ZM10.9116 9.93027V11.6148H12.8465C13.461 11.6148 13.9177 11.3047 13.9177 10.7348C13.9177 10.1314 13.4112 9.93027 12.7385 9.93027H10.9116ZM13.9925 13.1736C13.9925 12.5618 13.5274 12.2853 12.8382 12.2853H10.9116V14.0368H13.0043C13.5606 14.0368 13.9925 13.7603 13.9925 13.1736Z" fill="white"/>
</svg>
