<svg width="108" height="108" viewBox="0 0 108 108" fill="none" xmlns="http://www.w3.org/2000/svg">
<g clip-path="url(#clip0_1710_9746)">
<rect width="108" height="108" rx="54" fill="#FFEE56"/>
<path d="M147.552 63.6344C144.015 63.8449 140.478 64.0133 136.942 64.2238C135.299 64.3081 127.973 64.687 126.331 64.8133C126.036 70.5817 125.573 78.2449 124.773 87.2554C122.584 111.845 120.773 113.571 119.426 114.034C113.868 115.887 109.742 98.5396 90.7943 87.887C88.5627 86.6238 86.289 85.5712 84.0574 84.687C78.9206 82.6238 73.868 81.487 69.4048 80.8554C68.689 80.7712 68.0153 80.6449 67.3837 80.6028C67.3416 80.6028 67.2995 80.6449 67.2574 80.6449V80.687C64.8153 87.887 62.4153 95.1291 59.9732 102.329C59.0469 105.108 58.1206 107.845 57.1943 110.624C52.5627 110.497 47.9311 110.329 43.3416 110.203C43.3837 110.034 43.3838 109.866 43.4259 109.613C43.468 109.487 43.468 109.319 43.5101 109.15C43.5522 108.94 43.5943 108.729 43.5943 108.519C43.6364 108.35 43.6364 108.182 43.6785 107.971C43.7206 107.845 43.7206 107.719 43.7627 107.55C43.7627 107.424 43.8048 107.297 43.8048 107.171C43.9311 106.371 44.0995 105.445 44.268 104.434C44.3101 104.14 44.3522 103.887 44.3943 103.592C44.4364 103.424 44.4364 103.297 44.4785 103.129C44.4785 103.003 44.5206 102.919 44.5206 102.792C44.5627 102.455 44.6469 102.119 44.689 101.782C44.689 101.74 44.689 101.697 44.689 101.655C44.7311 101.319 44.8153 100.982 44.8574 100.645C45.2785 97.9922 45.7837 95.087 46.2048 92.3501C46.2469 92.1396 46.289 91.9712 46.289 91.7607C46.3732 91.1712 46.4574 90.6238 46.5837 90.0764C46.6259 89.8659 46.668 89.6554 46.668 89.4449C46.7101 89.2764 46.7101 89.1501 46.7522 88.9817C46.7943 88.687 46.8364 88.3922 46.9206 88.0975C46.9627 87.8028 47.0048 87.508 47.0469 87.2133C47.089 87.087 47.089 86.9186 47.1311 86.7922C47.3416 85.4449 47.5522 84.2659 47.6785 83.4238C40.5206 85.7396 34.9627 88.687 30.5838 91.7607C26.3311 94.7501 23.2153 97.908 20.8996 100.771C10.1206 114.119 6.45745 133.697 -0.405701 133.15C-1.83728 133.024 -4.02675 131.803 -12.1531 108.519C-14.8899 100.729 -17.0373 93.9922 -18.6794 88.6449C-25.6267 90.287 -32.5741 91.9291 -39.4794 93.6133C-35.9425 111.129 -29.3741 138.161 -19.8162 154.582C-18.4689 156.897 -17.0794 159.003 -15.6057 160.813C-14.2162 162.54 -11.7741 165.276 -7.77412 166.54C-2.08991 168.35 3.46798 166.161 5.61535 165.319C6.75219 164.855 7.80482 164.308 8.77324 163.719C10.7522 162.54 12.4785 161.066 14.2048 159.129C12.7311 165.866 11.2153 173.15 9.74166 181.108C11.889 181.108 14.0785 181.15 16.2259 181.15C37.068 181.276 57.91 181.403 78.7521 181.487C80.6048 181.487 82.4153 181.487 84.2679 181.529C86.1627 162.076 88.0153 142.624 89.91 123.171C92.2679 125.613 106.331 139.929 116.057 144.771C117.489 145.487 119.299 146.245 121.573 146.666C123.299 147.003 129.363 148.013 134.836 144.561C138.415 142.329 140.099 139.087 141.026 137.066C141.994 134.919 142.836 132.561 143.594 129.992C149.068 110.876 148.521 81.2765 147.552 63.6344Z" fill="#FF0F97"/>
<path d="M72.8567 61.1926C70.1619 60.8557 68.5619 58.961 68.183 58.4978C67.8461 57.9083 67.3409 56.7294 67.3409 55.1294C67.383 52.8136 68.562 51.2557 68.983 50.7926C68.6883 50.9189 66.7514 51.8452 64.8567 50.9189C62.7514 49.9083 62.0777 46.2031 62.3304 44.8557C62.3304 44.7715 62.3725 44.561 62.3304 44.5189C62.0356 44.3505 61.0672 46.7505 59.0883 47.9715C56.8567 49.361 54.2041 48.6873 53.7409 48.6031C52.6041 48.3505 51.0462 47.9294 50.2041 46.4557C49.0251 44.3926 50.4146 41.9926 50.5409 41.8241C49.1093 42.582 45.3198 44.3505 41.362 43.1294C40.6883 42.9189 39.6777 42.6241 38.8777 41.9926C38.3725 42.6663 37.9514 43.4241 37.5304 44.182C37.2357 44.7294 36.983 45.2768 36.6883 45.8662C31.7199 57.1926 34.8356 73.4873 43.4672 77.9925C44.9409 78.7504 46.583 79.1715 48.3514 79.3399C48.1409 80.6873 47.9304 81.9925 47.762 83.3399C47.6356 84.182 47.4251 85.361 47.2146 86.7083C47.2146 86.8346 47.1725 87.0031 47.1304 87.1294C47.0883 87.4241 47.0462 87.7188 47.0041 88.0136C46.962 88.3083 46.9198 88.6031 46.8356 88.8978C46.7935 89.0662 46.7935 89.1925 46.7514 89.361C46.7093 89.5715 46.6672 89.782 46.6672 89.9925C46.583 90.5399 46.4988 91.1294 46.3725 91.6767C46.3304 91.8873 46.2883 92.0557 46.2883 92.2662C46.1199 93.2346 45.9514 94.2452 45.783 95.2557C50.2041 96.4767 56.3514 98.2031 60.9409 99.4662C63.0462 93.1504 65.1935 86.8346 67.2988 80.5189C67.2988 80.5189 67.2988 80.5189 67.2988 80.4767C67.2988 80.4767 67.2988 80.4767 67.2988 80.4346V80.3925C67.8041 76.9399 68.2672 73.4873 68.7725 70.0768C70.6251 67.9715 72.1409 65.6136 73.1935 63.0031C73.3198 62.6662 73.4883 62.2873 73.6146 61.9083C73.6988 61.6557 73.783 61.4031 73.8672 61.1504C73.5304 61.2347 73.1935 61.2347 72.8567 61.1926Z" fill="#8235FF"/>
<path d="M97.7417 54.3712C95.5522 49.6133 88.268 47.1291 79.6364 48.0554C79.5943 48.0554 79.5522 48.0554 79.5101 48.0133C78.1627 44.308 75.5101 39.6765 70.7101 35.8028C77.6996 35.4659 83.2575 29.6975 83.2575 22.6238C83.2575 15.3396 77.3627 9.40279 70.1206 9.40279C62.8785 9.40279 56.9838 15.2975 56.9838 22.6238C56.9838 25.3607 57.8259 27.9291 59.2575 30.0344C52.1417 28.4344 46.9627 28.5186 43.9312 28.7712C43.9312 28.7712 38.6259 29.2344 37.1522 31.5501C36.4364 32.6449 36.5627 33.6975 36.5627 33.6975C36.6048 33.9501 36.647 34.4975 37.068 35.0028C37.6154 35.7186 38.3312 35.887 38.5417 35.9291C38.5417 35.9291 37.5312 37.4449 37.5312 39.1712C31.6364 39.887 27.0048 43.6765 25.868 48.3922C24.6048 53.5712 28.0575 58.0343 28.6048 58.7501C24.6891 58.5396 21.1943 61.2343 20.4364 65.0238C19.6785 68.7291 21.6996 72.4764 25.2364 73.908C19.1733 78.5396 18.4575 85.5712 21.1943 88.4764C23.047 90.4554 26.6259 90.7501 30.0364 89.7396C30.2469 90.4554 30.4575 91.087 30.7101 91.7185C35.0891 88.6449 40.6469 85.7396 47.8048 83.3817C48.0154 82.0343 48.2259 80.7291 48.3943 79.3817C46.6259 79.2554 44.9838 78.7922 43.5101 78.0343C34.8785 73.5291 31.7627 57.2343 36.7312 45.908C36.9838 45.3186 37.2364 44.7712 37.5733 44.2238C37.9943 43.4659 38.4154 42.7501 38.9206 42.0343C39.7206 42.6659 40.689 42.9607 41.4048 43.1712C45.3627 44.3501 49.1522 42.6238 50.5838 41.8659C50.4996 42.0344 49.1101 44.4343 50.2469 46.4975C51.089 47.9712 52.6469 48.3922 53.7838 48.6449C54.289 48.7291 56.8996 49.4028 59.1311 48.0133C61.1522 46.7922 62.0785 44.3922 62.3733 44.5607C62.4575 44.6028 62.4154 44.8133 62.3733 44.8975C62.1206 46.2449 62.7943 49.9501 64.8996 50.9607C66.7943 51.8449 68.7311 50.9607 69.0259 50.8343C68.6469 51.2975 67.4259 52.8554 67.3838 55.1712C67.3417 56.6449 67.8469 57.8238 68.1838 58.4133C68.1838 58.4554 68.2259 58.4975 68.2259 58.4975C68.6048 59.0028 70.2048 60.8554 72.8996 61.1922C73.2364 61.2343 73.5732 61.2343 73.9101 61.2343C73.8259 61.487 73.7417 61.7396 73.6575 61.9922C73.5311 62.3712 73.4048 62.708 73.2364 63.087C72.1838 65.6975 70.668 68.0554 68.8154 70.1606C68.3101 73.6133 67.8469 77.0659 67.3417 80.4764V80.5185C67.3417 80.5606 67.3417 80.5606 67.3417 80.5606C67.3838 80.5606 67.4259 80.5185 67.468 80.5185C68.1417 80.6028 68.8153 80.687 69.489 80.7712C73.9522 81.4027 78.9627 82.5817 84.1417 84.6027C84.7733 83.3396 85.2364 82.2027 85.5732 81.2764C85.9522 81.2343 91.3838 80.7291 93.9943 75.8027C95.7627 72.4764 95.5943 68.4764 93.5732 65.2764C94.2469 65.0238 96.9838 63.9291 98.2048 61.0659C99.468 58.0764 98.1206 55.1712 97.7417 54.3712Z" fill="black"/>
<path d="M49.9097 64.1399L43.9729 63.2978C43.9308 63.2978 43.8465 63.2557 43.8044 63.2136C43.7623 63.1714 43.7623 63.0872 43.7623 63.0451L46.7518 53.1925C46.7939 53.0662 46.9202 53.0241 47.0044 53.0662C47.1308 53.1083 47.1729 53.2346 47.1307 53.3188L44.1834 62.9188L49.8255 63.7188C49.9518 63.7188 50.036 63.8451 49.9939 63.9714C50.1202 64.0557 50.036 64.1399 49.9097 64.1399Z" fill="black"/>
<path d="M44.0313 52.8798C44.2255 52.4064 43.0748 51.4861 41.4612 50.824C39.8476 50.162 38.3821 50.009 38.1879 50.4823C37.9937 50.9556 39.1444 51.876 40.758 52.5381C42.3716 53.2001 43.8371 53.3531 44.0313 52.8798Z" fill="black"/>
<path d="M55.7479 53.1243C57.4489 52.7394 58.7363 52.0228 58.6234 51.5239C58.5105 51.0249 57.04 50.9325 55.339 51.3174C53.6381 51.7023 52.3507 52.4188 52.4636 52.9178C52.5765 53.4167 54.0469 53.5092 55.7479 53.1243Z" fill="black"/>
<path d="M50.2882 70.5398C48.8987 70.5398 47.8461 69.9503 47.7619 69.9082C47.6777 69.8661 47.6355 69.7398 47.6776 69.6135C47.7198 69.5293 47.8461 69.4872 47.9724 69.5293C48.0566 69.5714 50.2461 70.7924 52.3934 69.5293C54.204 68.4766 54.5408 66.4556 54.5408 66.2451C54.5408 66.1187 54.6671 66.0345 54.7934 66.0766C54.9198 66.0766 55.004 66.203 54.9619 66.3293C54.9198 66.7503 54.5408 68.8135 52.604 69.9503C51.804 70.4135 51.004 70.5398 50.2882 70.5398Z" fill="black"/>
<path d="M48.3936 79.8031C48.3515 79.8031 48.3514 79.8031 48.3093 79.8031C48.183 79.8031 48.0988 79.7189 48.0988 79.5926C48.0988 79.4663 48.183 79.3821 48.3093 79.3821C48.3514 79.3821 48.3515 79.3821 48.3936 79.3821C49.8251 79.3821 51.2988 79.2558 52.7304 79.0031L52.8567 78.961C52.9409 78.961 52.983 78.9189 53.0672 78.9189C53.5304 78.8347 54.0357 78.7084 54.583 78.5821C54.583 78.5821 54.583 78.5821 54.6251 78.5821C54.9199 78.4979 55.2567 78.4137 55.5515 78.3295C55.5936 78.3295 55.5936 78.3295 55.6357 78.3295C55.7199 78.2874 55.8041 78.2874 55.8883 78.2453C56.0988 78.161 56.3093 78.1189 56.5199 78.0347C59.1304 77.1926 61.6146 75.9295 63.8462 74.2874C63.8883 74.2453 63.9304 74.2453 63.9725 74.2032L64.0567 74.161C64.1409 74.0768 64.2672 74.1189 64.3515 74.2032C64.4357 74.2874 64.3935 74.4137 64.3093 74.4979L64.2672 74.54C64.2251 74.5821 64.183 74.5821 64.1409 74.6242C61.8672 76.2663 59.383 77.5716 56.7304 78.4558C56.5199 78.54 56.3093 78.5821 56.0988 78.6663C56.0146 78.7084 55.9304 78.7084 55.8462 78.7505C55.8041 78.7505 55.762 78.7505 55.762 78.7926C55.4672 78.8768 55.1304 78.961 54.8357 79.0453H54.7936C54.2462 79.1716 53.7409 79.2979 53.2778 79.3821C53.1936 79.3821 53.1093 79.4242 53.0672 79.4242L52.9409 79.4663C51.3409 79.6768 49.8672 79.8031 48.3936 79.8031Z" fill="black"/>
<path d="M80.478 64.6871C80.478 68.9818 76.9833 72.4766 72.6886 72.4766C68.3938 72.4766 64.8991 68.9818 64.8991 64.6871C64.8991 62.0766 66.1623 59.7608 68.1412 58.3713C68.1412 58.4134 68.1833 58.4555 68.1833 58.4555C68.5623 58.9608 70.1622 60.8134 72.857 61.1503C73.1938 61.1924 73.5307 61.1924 73.8675 61.1924C75.5938 61.1503 77.2359 60.4345 78.4149 59.3818C79.7201 60.8134 80.478 62.666 80.478 64.6871Z" fill="#8235FF"/>
<path d="M70.1618 68.2661C70.1197 68.2661 70.0776 68.2661 70.0355 68.2239C69.9513 68.1397 69.9092 68.0134 69.9934 67.9292C70.6671 67.045 70.8776 66.2029 70.7092 65.4871C70.4565 64.5187 69.5302 64.0555 69.5302 64.0555C69.446 64.0134 69.4039 63.9713 69.4039 63.8871C69.4039 63.8029 69.446 63.7187 69.4881 63.6766L75.6355 60.1397C75.7197 60.0976 75.846 60.0976 75.9302 60.224C75.9723 60.3082 75.9723 60.4345 75.846 60.5187L69.9934 63.8871C70.3302 64.1397 70.8776 64.645 71.0881 65.4029C71.2987 66.245 71.046 67.1713 70.2881 68.1818C70.2881 68.224 70.246 68.2661 70.1618 68.2661Z" fill="black"/>
<path d="M60.6884 55.6345C60.4358 59.045 57.4463 61.6976 54.0779 61.4871C50.7937 61.2766 48.1832 58.4555 48.2253 55.1292C52.3937 55.2976 56.5621 55.4661 60.6884 55.6345Z" fill="#D5E0EA"/>
<path d="M45.1939 55.003C45.0676 58.3714 42.2044 61.024 38.836 60.8556C35.4676 60.6872 32.8149 57.8661 32.9834 54.4977C37.0255 54.6661 41.1097 54.8346 45.1939 55.003Z" fill="#D5E0EA"/>
<path d="M49.6151 55.6766C49.5309 55.6766 49.4888 55.6345 49.4467 55.5924C49.3625 55.4661 48.5625 54.1608 47.0046 53.9503C45.8256 53.824 44.6467 54.3292 43.9309 55.3397C43.8467 55.424 43.7204 55.4661 43.6362 55.3819C43.552 55.2976 43.5098 55.1713 43.5941 55.0871C44.3941 53.9503 45.6993 53.3608 47.0467 53.4871C48.773 53.6976 49.6572 55.045 49.7835 55.3397C49.8256 55.424 49.8256 55.5503 49.6993 55.6345C49.6993 55.6766 49.6572 55.6766 49.6151 55.6766Z" fill="black"/>
<path d="M68.3936 57.066C68.3936 57.066 68.3515 57.066 68.3094 57.066L59.8884 56.4344C59.7621 56.4344 59.6779 56.3081 59.6779 56.2239C59.6779 56.0976 59.8042 56.0134 59.8884 56.0134L68.3094 56.645C68.4357 56.645 68.52 56.7713 68.52 56.8555C68.5621 56.9818 68.4779 57.066 68.3936 57.066Z" fill="black"/>
<path d="M39.8467 61.0238C39.7625 61.0238 39.6783 60.9817 39.6362 60.8975C39.2573 60.1396 39.0888 59.2975 39.1309 58.4554C39.1731 56.7291 39.9731 55.4238 40.6467 54.6659C40.7309 54.5817 40.8573 54.5817 40.9415 54.6659C41.0257 54.7501 41.0257 54.8764 40.9415 54.9606C40.3099 55.6764 39.5941 56.8554 39.552 58.4554C39.552 59.2554 39.7204 60.0133 40.0573 60.7291C40.0994 60.8554 40.0573 60.9396 39.9731 61.0238C39.8888 61.0238 39.8888 61.0238 39.8467 61.0238Z" fill="white"/>
<path d="M55.2146 61.6555C55.1304 61.6555 55.0883 61.6134 55.0462 61.5292C54.7094 60.8976 54.2883 59.8871 54.2883 58.624C54.3304 57.1082 54.9199 55.9713 55.4252 55.2976C55.5094 55.2134 55.6357 55.1713 55.7199 55.2555C55.8041 55.3398 55.8462 55.4661 55.762 55.5503C55.2989 56.1819 54.7094 57.2345 54.7094 58.624C54.7094 59.8029 55.0883 60.7292 55.4252 61.3187C55.4673 61.4029 55.4673 61.5292 55.341 61.6134C55.2989 61.6555 55.2568 61.6555 55.2146 61.6555Z" fill="white"/>
<path d="M53.2785 56.5604C53.7901 56.5604 54.2048 56.1457 54.2048 55.6341C54.2048 55.1225 53.7901 54.7078 53.2785 54.7078C52.7669 54.7078 52.3522 55.1225 52.3522 55.6341C52.3522 56.1457 52.7669 56.5604 53.2785 56.5604Z" fill="black"/>
<path d="M37.994 55.9713C38.5056 55.9713 38.9203 55.5566 38.9203 55.045C38.9203 54.5334 38.5056 54.1187 37.994 54.1187C37.4824 54.1187 37.0677 54.5334 37.0677 55.045C37.0677 55.5566 37.4824 55.9713 37.994 55.9713Z" fill="black"/>
<path d="M73.7413 75.0032C75.3691 75.0032 76.6887 73.6836 76.6887 72.0558C76.6887 70.4281 75.3691 69.1085 73.7413 69.1085C72.1135 69.1085 70.7939 70.4281 70.7939 72.0558C70.7939 73.6836 72.1135 75.0032 73.7413 75.0032Z" fill="#00CE87"/>
<path d="M45.7843 95.3399C45.4895 97.1083 45.1948 98.9188 44.9001 100.645C44.858 100.982 44.7737 101.319 44.7316 101.656C44.6895 102.035 44.6053 102.414 44.5632 102.75C44.5211 103.003 44.479 103.298 44.4369 103.55C44.3948 103.845 44.3527 104.14 44.3106 104.392C44.2264 104.898 44.1422 105.361 44.058 105.824C44.0159 106.035 43.9737 106.287 43.9316 106.498C43.8895 106.708 43.8474 106.919 43.8474 107.129C43.8474 107.256 43.8053 107.382 43.8053 107.508C43.7211 108.098 43.6369 108.645 43.5527 109.066C43.5106 109.235 43.5106 109.403 43.4685 109.529C43.4264 109.74 43.3843 109.95 43.3843 110.119C48.0159 110.245 52.6474 110.414 57.2369 110.54C58.1632 107.761 59.0895 105.024 60.0158 102.245C60.3106 101.361 60.6053 100.435 60.9422 99.5504C56.3527 98.2872 50.1632 96.5609 45.7843 95.3399Z" fill="white"/>
<path d="M60.8999 99.761L45.6999 95.5504C45.5736 95.5083 45.5315 95.382 45.5736 95.2978C45.6157 95.1715 45.6999 95.1294 45.8262 95.1715L60.9841 99.382C61.1104 99.4241 61.1525 99.5505 61.1104 99.6347C61.1104 99.7189 61.0262 99.761 60.8999 99.761Z" fill="#1F0D60"/>
</g>
<defs>
<clipPath id="clip0_1710_9746">
<rect width="108" height="108" rx="54" fill="white"/>
</clipPath>
</defs>
</svg>
