<svg width="108" height="108" viewBox="0 0 108 108" fill="none" xmlns="http://www.w3.org/2000/svg">
<g clip-path="url(#clip0_1710_9189)">
<rect width="108" height="108" rx="54" fill="#D7D372"/>
<path d="M21.2135 127.195C30.8279 130.937 40.6318 134.155 50.4602 137.248C63.1478 141.217 75.9596 144.993 88.5647 149.162C97.4927 119.315 104.89 83.363 104.832 74.6097C104.701 55.6289 75.5431 53.5127 75.5431 53.5127C75.5431 53.5127 35.9069 56.915 35.6129 58.414C35.3515 59.7465 11.2105 111.084 7.16241 121.569C11.8573 123.461 16.5023 125.386 21.2135 127.195Z" fill="#697CCC"/>
<path d="M11.4714 124.087C9.95056 127.573 9.12081 129.775 9.28882 129.807C9.45684 129.84 11.7032 131.05 15.3212 133.042C6.60952 135.173 -6.45668 137.705 -25.9356 140.236C-73.1898 146.437 -82.1209 146.378 -74.5323 204.183C-72.049 223.099 -72.5734 235.63 -72.2209 243.304C-62.3739 243.584 -47.3214 244.232 -37.5237 244.761C-32.2047 194.232 -38.9383 184.201 -38.9383 184.201C-38.9383 184.201 -38.7092 182.828 5.1371 190.058C66.3794 200.196 73.1094 203.652 82.4989 181.844C86.9608 171.454 91.5319 157.217 95.5642 142.618C67.5028 136.521 39.6559 129.563 11.4714 124.087Z" fill="black"/>
<path d="M46.6069 142.879C46.6069 142.879 54.5808 140.303 8.58499 127.77C-50.2568 111.798 -61.5291 110.985 -82.2466 166.752C-88.6936 184.055 -92.7616 194.433 -95.5598 201.492C-87.0305 206.669 -74.0837 215.753 -65.4211 220.698C-39.1426 180.442 -43.4663 171.228 -41.3496 163.865C-41.3496 163.865 -41.3496 163.865 -28.3555 172.27C-22.0575 170.443 -15.5476 169.086 -9.2743 167.383C0.554898 164.695 10.4097 162.098 20.2645 159.5C30.354 156.819 40.4518 154.097 50.5321 151.243L46.6069 142.879Z" fill="black"/>
<path d="M4.53097 91.9185C-0.9265 104.294 -2.05384 107.305 -2.05384 107.305C-2.05384 107.305 -37.8314 103.812 -51.833 110.58C-55.429 112.032 -61.5466 118.185 -61.7947 120.766C-61.8658 121.346 -62.1255 122.653 -60.6244 122.423C-60.4105 124.454 -59.6714 125.395 -59.011 125.179C-57.9869 127.571 -55.0942 127.217 -54.6662 125.729C-54.122 127.652 -52.0361 129.139 -46.4491 122.549C-46.1695 122.474 -39.4262 122.495 -38.6018 122.563C-35.1629 124.343 -38.6677 125.558 -41.1253 127.051C-42.1303 127.67 -42.692 129.388 -41.7724 129.643C-37.8046 130.759 -30.0853 126.089 -27.0442 124.322L20.2443 130.032L30.5909 97.0422C21.8387 95.5905 13.129 94.1466 4.53097 91.9185Z" fill="#952C28"/>
<path d="M74.1286 53.5908L59.1814 58.2937L38.5977 64.781L29.16 95.1538C20.6493 92.9463 12.1796 90.532 3.58682 88.7379C5.5072 84.3442 7.9764 78.7259 11.1944 71.5352C21.6467 48.1428 28.8556 48.5524 57.0769 51.7461C62.069 52.3271 67.7082 52.9477 74.1286 53.5908Z" fill="#697CCC"/>
<path d="M3.1762 108.883L-0.9025 107.22C-1.23099 107.079 -1.45389 107.542 -1.1254 107.682C0.23156 108.251 1.58851 108.819 2.95329 109.346C3.28178 109.486 3.50469 109.024 3.1762 108.883Z" fill="white"/>
<path d="M37.0035 63.1291C35.957 67.66 34.9037 72.2343 33.8573 76.7652C33.7628 77.1041 34.2731 77.2035 34.3284 76.857C35.3748 72.326 36.4281 67.7518 37.4746 63.2208C37.5691 62.8819 37.098 62.7902 37.0035 63.1291Z" fill="white"/>
<path d="M30.0393 96.692L17.4842 94.1874C16.7751 94.046 16.1895 93.4968 16.0701 92.7813L11.1348 68.9269C10.8632 67.6622 11.9926 66.5473 13.2439 66.7969L25.7989 69.3015C26.508 69.4429 27.0936 69.9921 27.2131 70.7076L32.1483 94.562C32.42 95.8267 31.2906 96.9416 30.0393 96.692Z" fill="black"/>
<path d="M24.4617 70.1098C23.1608 69.9081 21.8526 69.7476 20.5517 69.5458C20.2047 69.492 20.1192 69.9876 20.4661 70.0414C21.7671 70.2432 23.0752 70.4036 24.3762 70.6054C24.7231 70.6592 24.8087 70.1636 24.4617 70.1098Z" fill="white"/>
<path d="M22.8332 73.1694C21.9312 72.9034 20.8566 73.2943 20.468 74.1674C20.4598 74.2089 20.4517 74.2505 20.4435 74.2921C20.3936 74.3253 20.3854 74.3669 20.3772 74.4085C20.181 75.4063 20.8523 76.404 21.846 76.6451C22.7979 76.8778 23.6629 76.2291 23.9345 75.2895C24.1479 74.4248 23.727 73.477 22.8332 73.1694ZM22.0194 76.2043C21.268 76.0547 20.7645 75.3065 20.9117 74.5581C20.9199 74.5166 20.9199 74.5165 20.9281 74.475L20.978 74.4417C21.5899 73.0947 23.8023 73.5351 23.4916 75.115C23.2773 75.7635 22.7291 76.3456 22.0194 76.2043Z" fill="white"/>
<path d="M28.5675 85.7261C27.8096 81.2285 27.0596 76.6883 26.2616 72.1822C26.196 71.8585 25.6908 71.8845 25.7564 72.2082L28.0623 85.752C28.1201 86.1183 28.6253 86.0924 28.5675 85.7261Z" fill="white"/>
<path d="M22.8665 79.4135C23.2352 79.487 23.5927 79.2486 23.665 78.8811C23.7372 78.5136 23.4969 78.1562 23.1281 78.0827C22.7594 78.0092 22.4019 78.2475 22.3297 78.615C22.2575 78.9825 22.4978 79.34 22.8665 79.4135Z" fill="white"/>
<path d="M100.42 104.024C95.5781 102.013 90.7786 100.01 86.0035 97.884C83.0074 96.5585 80.0456 95.2818 76.934 94.3164L72.3574 106.06C72.3574 106.06 44.5463 95.2859 40.4743 94.0555C40.39 90.2635 39.627 85.4532 38.2501 82.1826C36.9256 79.0914 34.6558 77.4353 33.6005 76.9828C31.4898 76.0779 31.4523 80.4835 33.6029 82.0748C33.8127 82.793 32.1767 88.596 28.6123 87.2487C27.818 86.5906 27.0156 85.9734 26.2132 85.3562C25.3583 84.5594 20.0799 82.0845 16.726 77.6794C15.9479 76.9395 15.0512 75.2439 13.9634 74.955C12.5441 74.5616 11.3988 75.4499 11.5636 76.8386C11.6017 77.3124 14.606 81.4823 14.9151 81.9221C14.8695 83.4834 14.4867 84.3027 14.8557 85.772C14.6222 87.1708 14.6253 88.4867 14.8488 89.8015C13.5849 95.5045 17.3029 99.8506 21.9943 103.064C23.425 104.732 25.2477 106.644 27.4626 108.799C58.241 138.798 78.5767 147.958 90.282 147.565C98.4017 147.263 107.428 126.638 110.896 109.383C110.953 109.097 111.009 108.811 111.066 108.524C107.458 106.956 103.96 105.494 100.42 104.024Z" fill="#952C28"/>
<path d="M75.8827 92.8434L87.6607 61.7939L81.3026 55.9153L76.0764 51.0888C78.6087 51.3809 81.4731 51.7398 84.4539 52.1655C98.7766 54.1771 115.852 58.2179 114.382 72.1139C113.607 79.3792 112.17 93.3253 109.495 106.762C98.1621 102.487 86.9523 97.8031 75.8827 92.8434Z" fill="#697CCC"/>
<path d="M76.7155 109.233C75.6762 108.087 74.6368 106.941 73.5975 105.795C73.3861 105.539 73.0438 105.945 73.2551 106.2C74.2945 107.346 75.3338 108.493 76.3731 109.639C76.5927 109.853 76.935 109.448 76.7155 109.233Z" fill="white"/>
<path d="M18.9461 88.2244C17.5681 86.982 16.2324 85.7477 14.8545 84.5053C14.5909 84.2846 14.2555 84.647 14.5109 84.9087C15.8889 86.151 17.2245 87.3854 18.6025 88.6277C18.8238 88.8403 19.2097 88.445 18.9461 88.2244Z" fill="#D24A43"/>
<path d="M17.091 90.8716C15.8113 90.0636 14.8573 88.9325 14.3048 87.5362C14.1941 87.2139 13.6747 87.4133 13.7936 87.6942C14.4137 89.1896 15.4773 90.428 16.8749 91.302C17.1864 91.4916 17.4025 91.0613 17.091 90.8716Z" fill="#D24A43"/>
<path d="M16.0069 94.7506C15.3066 93.8829 14.6064 93.0153 13.8979 92.189C13.687 91.9328 13.2355 92.2314 13.4464 92.4875C14.1467 93.3552 14.8469 94.2229 15.5554 95.0491C15.7663 95.3053 16.2178 95.0068 16.0069 94.7506Z" fill="#D24A43"/>
<path d="M25.43 109.088C20.0771 105.722 15.9582 100.75 13.7146 94.8986C13.604 94.5763 13.0929 94.7343 13.2036 95.0566C15.5065 101.049 19.693 106.12 25.1638 109.551C25.4833 109.7 25.7076 109.228 25.43 109.088Z" fill="#D24A43"/>
<path d="M80.8402 72.1217C79.1139 78.5207 77.4197 84.9709 75.6934 91.3699C75.598 91.7082 76.0684 91.8025 76.1638 91.4643C77.8901 85.0653 79.5843 78.6151 81.3106 72.2161C81.4452 71.8857 80.9356 71.7835 80.8402 72.1217Z" fill="white"/>
<path d="M74.2364 51.5929C67.7034 50.9995 61.9219 50.4162 56.8841 49.8834C56.7906 52.1718 57.593 54.4126 59.0898 56.2758C59.2722 56.4764 59.4117 56.6692 59.5941 56.8698C61.86 59.3331 65.1583 60.5995 68.6088 60.636C72.9901 60.673 76.7466 58.9205 79.7119 56.2287C80.8995 55.1438 81.9826 53.9144 82.9102 52.573C79.7959 52.178 76.8877 51.8623 74.2364 51.5929Z" fill="#952C28"/>
<path d="M79.5713 54.4563L59.9764 56.4857L58.6338 51.2042L56.886 44.4271L53.8977 32.6893L68.3222 29.8504C68.695 31.2962 79.5713 54.4563 79.5713 54.4563Z" fill="#952C28"/>
<path d="M58.0408 51.9301L58.1071 52.2087C60.7961 50.2753 62.6537 47.3534 63.7421 43.9396C65.1537 39.3784 64.5326 35.202 63.8366 30.7888L53.59 32.9121L56.4231 44.9749L58.0408 51.9301Z" fill="black"/>
<path d="M68.2921 18.378C64.026 12.4808 46.8203 15.3342 46.7895 22.5632C46.7686 27.9747 46.8508 42.9432 49.4723 45.6814C54.7555 51.1673 62.8743 47.5688 66.1403 41.792C69.4553 35.9833 72.567 24.2339 68.2921 18.378Z" fill="#952C28"/>
<path d="M69.4213 20.4094C69.9066 19.8009 70.1323 18.9727 70.0899 17.9646C69.9313 15.6833 68.0186 14.5834 66.1889 14.7081C65.3909 13.3368 63.5607 12.462 61.9342 12.4618C61.1841 12.4746 60.441 12.6555 59.8066 12.9419C59.4297 12.6564 58.9932 12.442 58.5392 12.3073C57.4962 12.0519 56.5832 12.4061 55.786 13.034L55.7772 13.0738C54.212 12.7946 52.6171 13.0508 51.5958 14.2989C51.4679 14.481 51.34 14.663 51.2455 14.8934C48.5861 13.3906 45.1119 12.5952 43.9493 15.6884C43.7077 16.3885 43.6694 16.9636 43.8168 17.4935C43.307 18.0137 42.8971 18.6793 42.7046 19.556C42.3826 20.8225 43.7888 22.0269 45.1154 21.5909C45.4028 21.4832 45.6902 21.3755 45.9688 21.3077C46.2179 21.7752 46.5686 22.1802 47.1051 22.54C49.2842 24.0278 51.466 23.1007 52.6011 21.3345C54.552 21.8593 56.6446 21.5386 58.3636 20.5167C58.6426 21.4484 59.4369 22.2358 60.699 22.4945C61.33 22.6238 61.9452 22.625 62.4604 22.4807C63.2551 24.2677 64.6632 26.2637 67.1748 26.2371C68.3632 26.2308 68.6313 30.6167 69.7338 30.801C70.3949 27.1886 70.5179 23.4243 69.4213 20.4094Z" fill="black"/>
<path d="M54.0083 34.1889C53.4495 34.3254 52.8397 34.493 52.2398 34.4138C51.5554 34.3177 50.8063 33.7108 51.1825 32.9986C51.3364 32.6978 50.9066 32.4454 50.7527 32.7462C50.3852 33.4188 50.609 34.2102 51.317 34.6015C52.1679 35.1458 53.2347 34.9042 54.1239 34.6684C54.4543 34.5689 54.3387 34.0895 54.0083 34.1889Z" fill="black"/>
<path d="M51.0149 29.5418C51.2591 31.6077 49.6632 33.4945 47.4208 33.3563C45.1783 33.2181 43.7864 31.2034 44.2369 29.1584C44.3076 28.8377 43.8152 28.6916 43.7446 29.0124C43.2234 31.3781 44.804 33.7265 47.3983 33.8551C49.9926 33.9837 51.8262 31.8115 51.5185 29.4384C51.4639 29.0912 50.9603 29.1946 51.0149 29.5418Z" fill="#BCD7FD"/>
<path d="M61.559 27.6859C62.1166 29.702 60.8298 31.7858 58.6084 31.9832C56.387 32.1807 54.701 30.3438 54.8533 28.2694C54.8826 27.9385 54.3747 27.8716 54.3542 28.1622C54.2142 30.5765 56.1054 32.6681 58.6772 32.4616C61.2491 32.2551 62.6988 29.827 62.0875 27.4622C61.9743 27.1851 61.4963 27.3775 61.559 27.6859Z" fill="#BCD7FD"/>
<path d="M54.543 29.1684C53.4474 29.3252 52.3518 29.4821 51.2562 29.6389C50.9335 29.6995 51.0513 30.1765 51.374 30.1159C52.4696 29.959 53.5652 29.8022 54.6608 29.6453C54.6103 29.4704 54.5936 29.3433 54.543 29.1684Z" fill="#BCD7FD"/>
<path d="M57.4965 27.8809C57.5192 28.3686 57.5813 28.8659 57.6126 29.3119C57.6747 29.8092 58.3661 29.6699 58.3434 29.1822C58.3208 28.6944 58.2587 28.1971 58.2274 27.7511C58.174 27.2121 57.4344 27.3836 57.4965 27.8809Z" fill="black"/>
<path d="M47.4408 28.609C47.4635 29.0966 47.5256 29.5937 47.5569 30.0396C47.619 30.5367 48.3109 30.3974 48.2882 29.9099C48.2655 29.4223 48.2034 28.9251 48.1721 28.4793C48.11 27.9822 47.3787 28.1119 47.4408 28.609Z" fill="black"/>
<path d="M49.0577 25.4603C48.481 25.4704 47.9043 25.4805 47.3362 25.451C47.0734 25.4405 46.8264 25.7636 46.8681 25.9784C46.8925 26.2725 47.1719 26.4103 47.4348 26.4208C48.0115 26.4107 48.5881 26.4006 49.1562 26.4301C49.419 26.4407 49.6661 26.1176 49.6244 25.9028C49.5999 25.6087 49.3205 25.4709 49.0577 25.4603Z" fill="black"/>
<path d="M56.9271 23.6521C56.4302 23.7162 55.8825 23.8116 55.3856 23.8757C54.7032 23.985 54.9299 24.9501 55.6123 24.8408C56.1092 24.7767 56.6569 24.6813 57.1538 24.6171C57.7855 24.5391 57.5587 23.5741 56.9271 23.6521Z" fill="black"/>
<path d="M60.6957 40.2057C60.2201 41.2139 59.3006 41.9058 58.1943 42.0825C57.8827 42.1402 57.898 42.6591 58.2096 42.6015C59.4876 42.421 60.5558 41.6342 61.1484 40.481C61.301 40.1723 60.8394 39.9379 60.6957 40.2057Z" fill="black"/>
<path d="M70.2457 25.0656C67.5299 25.8029 64.814 26.5403 62.0982 27.2777C61.7681 27.377 61.8832 27.8571 62.2132 27.7579C64.9291 27.0205 67.6449 26.2831 70.3608 25.5457C70.733 25.455 70.5758 24.9663 70.2457 25.0656Z" fill="#BCD7FD"/>
<path d="M75.3448 26.7215C74.2296 24.3989 70.3831 23.4712 68.0066 25.9807C68.2579 28.7503 68.4192 31.5422 68.5804 34.3341C70.0781 34.8938 73.0334 34.6265 74.5699 33.0429C76.3044 31.3327 76.5462 29.2361 75.3448 26.7215Z" fill="#952C28"/>
<path d="M71.4711 28.4216C70.9278 29.2558 70.3453 30.0805 69.7933 30.9565C69.6151 31.2207 70.0122 31.4932 70.2297 31.2386C70.2775 31.2064 70.2948 31.1227 70.3427 31.0904C70.3514 31.0486 70.3514 31.0486 70.36 31.0068C70.886 30.2562 71.3728 29.4961 71.9075 28.7037C72.0464 28.43 71.6493 28.1575 71.4711 28.4216Z" fill="black"/>
</g>
<defs>
<clipPath id="clip0_1710_9189">
<rect width="108" height="108" rx="54" fill="white"/>
</clipPath>
</defs>
</svg>
